<svg width="207" height="48" viewBox="0 0 207 48" fill="none" xmlns="http://www.w3.org/2000/svg">
<rect width="206" height="48" transform="translate(0.5)" fill="black"/>
<path d="M72.0718 18.148V31H80.5858V29.56H73.7818V18.148H72.0718ZM85.7338 24.574C85.7338 23.926 85.8178 23.29 85.9858 22.666C86.1538 22.03 86.4178 21.46 86.7778 20.956C87.1378 20.452 87.5998 20.05 88.1638 19.75C88.7278 19.438 89.3998 19.282 90.1798 19.282C90.9598 19.282 91.6318 19.438 92.1958 19.75C92.7598 20.05 93.2218 20.452 93.5818 20.956C93.9418 21.46 94.2058 22.03 94.3738 22.666C94.5418 23.29 94.6258 23.926 94.6258 24.574C94.6258 25.222 94.5418 25.864 94.3738 26.5C94.2058 27.124 93.9418 27.688 93.5818 28.192C93.2218 28.696 92.7598 29.104 92.1958 29.416C91.6318 29.716 90.9598 29.866 90.1798 29.866C89.3998 29.866 88.7278 29.716 88.1638 29.416C87.5998 29.104 87.1378 28.696 86.7778 28.192C86.4178 27.688 86.1538 27.124 85.9858 26.5C85.8178 25.864 85.7338 25.222 85.7338 24.574ZM84.0238 24.574C84.0238 25.45 84.1498 26.296 84.4018 27.112C84.6658 27.916 85.0558 28.63 85.5718 29.254C86.0878 29.878 86.7298 30.376 87.4978 30.748C88.2658 31.108 89.1598 31.288 90.1798 31.288C91.1998 31.288 92.0938 31.108 92.8618 30.748C93.6298 30.376 94.2718 29.878 94.7878 29.254C95.3038 28.63 95.6878 27.916 95.9398 27.112C96.2038 26.296 96.3358 25.45 96.3358 24.574C96.3358 23.698 96.2038 22.858 95.9398 22.054C95.6878 21.238 95.3038 20.518 94.7878 19.894C94.2718 19.27 93.6298 18.772 92.8618 18.4C92.0938 18.028 91.1998 17.842 90.1798 17.842C89.1598 17.842 88.2658 18.028 87.4978 18.4C86.7298 18.772 86.0878 19.27 85.5718 19.894C85.0558 20.518 84.6658 21.238 84.4018 22.054C84.1498 22.858 84.0238 23.698 84.0238 24.574ZM110.702 29.398L111.152 31H112.232V24.232H106.598V25.672H110.702C110.726 26.26 110.648 26.812 110.468 27.328C110.288 27.832 110.018 28.276 109.658 28.66C109.31 29.032 108.878 29.326 108.362 29.542C107.846 29.758 107.252 29.866 106.58 29.866C105.86 29.866 105.224 29.728 104.672 29.452C104.132 29.164 103.676 28.786 103.304 28.318C102.932 27.838 102.65 27.292 102.458 26.68C102.266 26.056 102.17 25.408 102.17 24.736C102.17 24.052 102.254 23.386 102.422 22.738C102.59 22.078 102.848 21.496 103.196 20.992C103.556 20.476 104.012 20.062 104.564 19.75C105.128 19.438 105.8 19.282 106.58 19.282C107.06 19.282 107.51 19.342 107.93 19.462C108.362 19.57 108.746 19.738 109.082 19.966C109.418 20.194 109.7 20.488 109.928 20.848C110.156 21.196 110.312 21.616 110.396 22.108H112.106C111.986 21.352 111.758 20.71 111.422 20.182C111.098 19.642 110.69 19.198 110.198 18.85C109.718 18.502 109.166 18.25 108.542 18.094C107.93 17.926 107.276 17.842 106.58 17.842C105.56 17.842 104.666 18.034 103.898 18.418C103.142 18.79 102.506 19.294 101.99 19.93C101.486 20.566 101.102 21.31 100.838 22.162C100.586 23.002 100.46 23.89 100.46 24.826C100.46 25.666 100.598 26.476 100.874 27.256C101.15 28.036 101.552 28.726 102.08 29.326C102.608 29.926 103.25 30.406 104.006 30.766C104.762 31.114 105.62 31.288 106.58 31.288C107.336 31.288 108.086 31.144 108.83 30.856C109.574 30.556 110.198 30.07 110.702 29.398ZM117.49 18.148V31H119.2V18.148H117.49ZM124.728 18.148V31H126.348V20.686H126.384L133.098 31H134.97V18.148H133.35V28.57H133.314L126.546 18.148H124.728Z" fill="white"/>
</svg>