<svg width="207" height="48" viewBox="0 0 207 48" fill="none" xmlns="http://www.w3.org/2000/svg">
<path d="M68.0028 21.91H69.6228C69.5988 21.202 69.4608 20.596 69.2088 20.092C68.9688 19.576 68.6328 19.15 68.2008 18.814C67.7808 18.478 67.2888 18.232 66.7248 18.076C66.1608 17.92 65.5488 17.842 64.8888 17.842C64.3008 17.842 63.7248 17.92 63.1608 18.076C62.6088 18.22 62.1108 18.448 61.6668 18.76C61.2348 19.06 60.8868 19.45 60.6228 19.93C60.3588 20.398 60.2268 20.956 60.2268 21.604C60.2268 22.192 60.3408 22.684 60.5688 23.08C60.8088 23.464 61.1208 23.782 61.5048 24.034C61.9008 24.274 62.3448 24.472 62.8368 24.628C63.3288 24.772 63.8268 24.904 64.3308 25.024C64.8468 25.132 65.3508 25.24 65.8428 25.348C66.3348 25.456 66.7728 25.6 67.1568 25.78C67.5528 25.948 67.8648 26.17 68.0928 26.446C68.3328 26.722 68.4528 27.082 68.4528 27.526C68.4528 27.994 68.3568 28.378 68.1648 28.678C67.9728 28.978 67.7208 29.218 67.4088 29.398C67.0968 29.566 66.7428 29.686 66.3468 29.758C65.9628 29.83 65.5788 29.866 65.1948 29.866C64.7148 29.866 64.2468 29.806 63.7908 29.686C63.3348 29.566 62.9328 29.38 62.5848 29.128C62.2488 28.876 61.9728 28.558 61.7568 28.174C61.5528 27.778 61.4508 27.31 61.4508 26.77H59.8308C59.8308 27.55 59.9688 28.228 60.2448 28.804C60.5328 29.368 60.9168 29.836 61.3968 30.208C61.8888 30.568 62.4528 30.838 63.0888 31.018C63.7368 31.198 64.4208 31.288 65.1408 31.288C65.7288 31.288 66.3168 31.216 66.9048 31.072C67.5048 30.94 68.0448 30.724 68.5248 30.424C69.0048 30.112 69.3948 29.716 69.6948 29.236C70.0068 28.744 70.1628 28.156 70.1628 27.472C70.1628 26.836 70.0428 26.308 69.8028 25.888C69.5748 25.468 69.2628 25.12 68.8668 24.844C68.4828 24.568 68.0448 24.352 67.5528 24.196C67.0608 24.028 66.5568 23.884 66.0408 23.764C65.5368 23.644 65.0388 23.536 64.5468 23.44C64.0548 23.332 63.6108 23.2 63.2148 23.044C62.8308 22.888 62.5188 22.69 62.2788 22.45C62.0508 22.198 61.9368 21.874 61.9368 21.478C61.9368 21.058 62.0148 20.71 62.1708 20.434C62.3388 20.146 62.5548 19.918 62.8188 19.75C63.0948 19.582 63.4068 19.462 63.7548 19.39C64.1028 19.318 64.4568 19.282 64.8168 19.282C65.7048 19.282 66.4308 19.492 66.9948 19.912C67.5708 20.32 67.9068 20.986 68.0028 21.91ZM74.9827 18.148V31H76.6927V18.148H74.9827ZM91.8509 29.398L92.3009 31H93.3809V24.232H87.7469V25.672H91.8509C91.8749 26.26 91.7969 26.812 91.6169 27.328C91.4369 27.832 91.1669 28.276 90.8069 28.66C90.4589 29.032 90.0269 29.326 89.5109 29.542C88.9949 29.758 88.4009 29.866 87.7289 29.866C87.0089 29.866 86.3729 29.728 85.8209 29.452C85.2809 29.164 84.8249 28.786 84.4529 28.318C84.0809 27.838 83.7989 27.292 83.6069 26.68C83.4149 26.056 83.3189 25.408 83.3189 24.736C83.3189 24.052 83.4029 23.386 83.5709 22.738C83.7389 22.078 83.9969 21.496 84.3449 20.992C84.7049 20.476 85.1609 20.062 85.7129 19.75C86.2769 19.438 86.9489 19.282 87.7289 19.282C88.2089 19.282 88.6589 19.342 89.0789 19.462C89.5109 19.57 89.8949 19.738 90.2309 19.966C90.5669 20.194 90.8489 20.488 91.0769 20.848C91.3049 21.196 91.4609 21.616 91.5449 22.108H93.2549C93.1349 21.352 92.9069 20.71 92.5709 20.182C92.2469 19.642 91.8389 19.198 91.3469 18.85C90.8669 18.502 90.3149 18.25 89.6909 18.094C89.0789 17.926 88.4249 17.842 87.7289 17.842C86.7089 17.842 85.8149 18.034 85.0469 18.418C84.2909 18.79 83.6549 19.294 83.1389 19.93C82.6349 20.566 82.2509 21.31 81.9869 22.162C81.7349 23.002 81.6089 23.89 81.6089 24.826C81.6089 25.666 81.7469 26.476 82.0229 27.256C82.2989 28.036 82.7009 28.726 83.2289 29.326C83.7569 29.926 84.3989 30.406 85.1549 30.766C85.9109 31.114 86.7689 31.288 87.7289 31.288C88.4849 31.288 89.2349 31.144 89.9789 30.856C90.7229 30.556 91.3469 30.07 91.8509 29.398ZM98.5491 18.148V31H100.169V20.686H100.205L106.919 31H108.791V18.148H107.171V28.57H107.135L100.367 18.148H98.5491ZM132.167 26.356V18.148H130.457V26.356C130.457 27.508 130.169 28.384 129.593 28.984C129.029 29.572 128.201 29.866 127.109 29.866C125.957 29.866 125.075 29.572 124.463 28.984C123.851 28.384 123.545 27.508 123.545 26.356V18.148H121.835V26.356C121.835 28.072 122.297 29.326 123.221 30.118C124.157 30.898 125.453 31.288 127.109 31.288C128.729 31.288 129.977 30.88 130.853 30.064C131.729 29.236 132.167 28 132.167 26.356ZM139.277 24.304V19.588H142.625C143.597 19.588 144.305 19.792 144.749 20.2C145.205 20.596 145.433 21.178 145.433 21.946C145.433 22.714 145.205 23.302 144.749 23.71C144.305 24.118 143.597 24.316 142.625 24.304H139.277ZM137.567 18.148V31H139.277V25.744H143.201C144.497 25.756 145.475 25.426 146.135 24.754C146.807 24.082 147.143 23.146 147.143 21.946C147.143 20.746 146.807 19.816 146.135 19.156C145.475 18.484 144.497 18.148 143.201 18.148H137.567Z" fill="black"/>
<rect x="1" y="0.5" width="205" height="47" stroke="black"/>
</svg>